<svg width="72" height="72" viewBox="0 0 72 72" fill="none" xmlns="http://www.w3.org/2000/svg">
<g opacity="0.7">
<path fill-rule="evenodd" clip-rule="evenodd" d="M67.3098 15.8898L56.1102 4.69023C55.9077 4.48776 55.633 4.37402 55.3467 4.37402C55.0603 4.37402 54.7856 4.48776 54.5831 4.69023L34.6571 24.6155L22.6281 12.7802C22.6187 12.7708 22.6065 12.7643 22.5964 12.7557C22.5564 12.7196 22.5138 12.6867 22.4689 12.657C22.4473 12.6426 22.4272 12.6268 22.4049 12.6138C22.3507 12.584 22.2941 12.5587 22.2357 12.5382C22.2205 12.5332 22.2076 12.5238 22.1925 12.5188L5.90031 7.42839C5.71214 7.36909 5.51132 7.36254 5.31969 7.40944C5.12805 7.45635 4.95296 7.55491 4.81345 7.69442C4.67395 7.83392 4.57538 8.00902 4.52848 8.20065C4.48157 8.39228 4.48813 8.59311 4.54743 8.78127L9.63855 25.0727C9.66951 25.1714 9.71703 25.2621 9.77391 25.347C9.79191 25.3744 9.81351 25.3967 9.83367 25.4219C9.86031 25.455 9.88191 25.491 9.91215 25.5206L21.9289 37.3437L4.68999 54.5834C4.48752 54.7859 4.37378 55.0605 4.37378 55.3469C4.37378 55.6333 4.48752 55.9079 4.68999 56.1105L15.8903 67.3115C15.9906 67.4119 16.1097 67.4915 16.2408 67.5458C16.3718 67.6001 16.5123 67.6281 16.6542 67.6281C16.7961 67.6281 16.9366 67.6001 17.0677 67.5458C17.1988 67.4915 17.3179 67.4119 17.4181 67.3115L34.8349 49.8947L48.9268 63.5898C49.1068 63.7634 49.3329 63.8476 49.564 63.8728C51.1876 65.3889 53.3272 66.2306 55.5486 66.2272C57.9045 66.2272 60.1199 65.3099 61.7853 63.6438C65.1786 60.2505 65.2168 54.7605 61.9127 51.3117C61.8616 51.1308 61.764 50.9665 61.6297 50.835L47.4969 37.2321L67.3105 17.4177C67.513 17.2149 67.6266 16.9401 67.6265 16.6536C67.6263 16.3671 67.5124 16.0924 67.3098 15.8898ZM20.535 14.2648L19.7279 17.008L15.9652 18.1146C15.7918 18.1656 15.6339 18.2593 15.5061 18.3871C15.3783 18.5149 15.2846 18.6727 15.2337 18.8462L14.1277 22.6082L11.3838 23.4153L7.22439 10.1054L20.535 14.2648ZM16.6535 65.0205L6.98031 55.3466L11.0497 51.2771L15.886 56.1134C16.0969 56.3243 16.3734 56.4294 16.6499 56.4294C16.9264 56.4294 17.2029 56.3243 17.4138 56.1134C17.6163 55.9108 17.73 55.6362 17.73 55.3498C17.73 55.0634 17.6163 54.7888 17.4138 54.5862L12.5776 49.75L16.5405 45.7871L21.3767 50.6234C21.5877 50.8343 21.8641 50.9394 22.1406 50.9394C22.4171 50.9394 22.6936 50.8343 22.9045 50.6234C23.107 50.4208 23.2208 50.1462 23.2208 49.8598C23.2208 49.5734 23.107 49.2988 22.9045 49.0962L18.0683 44.26L23.4748 38.8535L33.2862 48.3892L16.6535 65.0205ZM60.256 62.116C57.8389 64.5316 54.015 64.6965 51.4029 62.6164L60.7571 53.2622C62.8372 55.875 62.6723 59.7004 60.256 62.116ZM49.6677 61.2981L24.1494 36.4977L12.736 25.2686L15.3028 24.514C15.4762 24.463 15.634 24.3693 15.7618 24.2415C15.8896 24.1137 15.9833 23.9559 16.0343 23.7825L17.1409 20.0205L20.9037 18.9138C21.0771 18.8629 21.2349 18.7692 21.3627 18.6414C21.4905 18.5136 21.5842 18.3557 21.6352 18.1823L22.3998 15.5838L45.1849 38.0018L59.3394 51.627L49.6677 61.2981ZM45.9481 35.7258L36.1965 26.1304L41.7397 20.5871L46.576 25.4234C46.7869 25.6343 47.0634 25.7394 47.3399 25.7394C47.6164 25.7394 47.8929 25.6343 48.1038 25.4234C48.3063 25.2208 48.42 24.9462 48.42 24.6598C48.42 24.3734 48.3063 24.0988 48.1038 23.8962L43.2676 19.06L47.7705 14.5571L52.6067 19.3934C52.8177 19.6043 53.0941 19.7094 53.3706 19.7094C53.6471 19.7094 53.9236 19.6043 54.1345 19.3934C54.337 19.1908 54.4508 18.9162 54.4508 18.6298C54.4508 18.3434 54.337 18.0688 54.1345 17.8662L49.2983 13.03L55.3477 6.98055L65.0195 16.6538L45.9481 35.7258Z" fill="#DBDBDB"/>
</g>
</svg>
