<svg width="72" height="72" viewBox="0 0 72 72" fill="none" xmlns="http://www.w3.org/2000/svg">
<g opacity="0.7">
<path d="M26.8056 23.3062L25.0416 33.6022C25.0049 33.8045 25.0267 34.0131 25.1045 34.2034C25.1823 34.3938 25.3128 34.5579 25.4807 34.6766C25.6485 34.7954 25.8468 34.8637 26.0522 34.8736C26.2575 34.8835 26.4614 34.8346 26.64 34.7326L35.856 29.8726L45.1008 34.7326C45.2791 34.8271 45.4804 34.8696 45.6817 34.8554C45.8831 34.8413 46.0764 34.771 46.2398 34.6526C46.4032 34.5341 46.5302 34.3723 46.6063 34.1854C46.6824 33.9984 46.7046 33.7939 46.6704 33.595L44.9064 23.299L52.38 16.0126C52.5246 15.8721 52.6269 15.6938 52.6754 15.4981C52.724 15.3024 52.7167 15.097 52.6545 14.9051C52.5923 14.7133 52.4777 14.5427 52.3235 14.4127C52.1694 14.2827 51.9819 14.1984 51.7824 14.1694L41.4432 12.6718L36.8208 3.31184C36.7316 3.13117 36.5936 2.97905 36.4225 2.87269C36.2513 2.76633 36.0539 2.70996 35.8524 2.70996C35.6509 2.70996 35.4534 2.76633 35.2823 2.87269C35.1111 2.97905 34.9732 3.13117 34.884 3.31184L30.24 12.6718L19.9296 14.1694C19.73 14.1984 19.5425 14.2827 19.3884 14.4127C19.2343 14.5427 19.1196 14.7133 19.0574 14.9051C18.9952 15.097 18.988 15.3024 19.0365 15.4981C19.085 15.6938 19.1874 15.8721 19.332 16.0126L26.8056 23.3062ZM31.1256 14.7238C31.2989 14.6988 31.4635 14.6319 31.6053 14.5291C31.747 14.4262 31.8616 14.2904 31.9392 14.1334L35.8416 6.21344L39.744 14.1334C39.8216 14.2904 39.9362 14.4262 40.0779 14.5291C40.2196 14.6319 40.3843 14.6988 40.5576 14.7238L49.2912 15.991L42.984 22.1542C42.8585 22.2767 42.7648 22.4279 42.7108 22.5948C42.6569 22.7616 42.6444 22.9391 42.6744 23.1118L44.1648 31.8094L36.36 27.6982C36.2046 27.6163 36.0316 27.5734 35.856 27.5734C35.6803 27.5734 35.5073 27.6163 35.352 27.6982L27.54 31.8022L29.0304 23.1118C29.0604 22.9391 29.0479 22.7616 28.9939 22.5948C28.94 22.4279 28.8462 22.2767 28.7208 22.1542L22.3992 15.9982L31.1256 14.7238Z" fill="#DBDBDB"/>
<path d="M61.2001 32.4002C61.2093 32.3189 61.2093 32.2368 61.2001 32.1554V32.105C61.1815 32.043 61.1574 31.9828 61.1281 31.925L61.0921 31.8602C61.0602 31.8093 61.024 31.7611 60.9841 31.7162L60.9409 31.6658C60.8825 31.6056 60.8172 31.5525 60.7465 31.5074L51.552 25.8122C51.3086 25.6595 51.0144 25.6097 50.7342 25.6738C50.454 25.738 50.2108 25.9108 50.0581 26.1542C49.9053 26.3977 49.8555 26.6919 49.9196 26.9721C49.9838 27.2522 50.1566 27.4955 50.4001 27.6482L57.8953 32.2994L29.3329 46.5842L13.8097 32.681L21.2185 29.1602C21.4772 29.0371 21.6764 28.8162 21.7723 28.5461C21.8682 28.2761 21.8528 27.979 21.7297 27.7202C21.6065 27.4615 21.3856 27.2623 21.1155 27.1664C20.8455 27.0705 20.5484 27.0859 20.2897 27.209L11.4193 31.4282C11.3417 31.4673 11.2692 31.5157 11.2033 31.5722L11.1529 31.6154C11.0964 31.6674 11.0457 31.7254 11.0017 31.7882V31.8314C10.9531 31.9079 10.9144 31.9901 10.8865 32.0762V32.1338C10.8782 32.2104 10.8782 32.2877 10.8865 32.3642C10.8865 32.3642 10.8865 32.3642 10.8865 32.4002V54.1442C10.8858 54.3017 10.9197 54.4574 10.9856 54.6005C11.0515 54.7435 11.1479 54.8704 11.2681 54.9722L28.5481 70.3082C28.6349 70.3781 28.732 70.4339 28.8361 70.4738H28.8793C28.9882 70.5112 29.1025 70.5306 29.2177 70.5314C29.2942 70.5396 29.3715 70.5396 29.4481 70.5314H29.4985L29.6641 70.4738L60.6241 55.1378C60.8038 55.0432 60.9532 54.8997 61.0551 54.7239C61.157 54.5482 61.2072 54.3473 61.2001 54.1442V32.4002ZM12.9601 34.8194L28.0801 48.3626V67.1546L12.9601 53.6402V34.8194ZM59.0401 53.4602L30.2401 67.7738V48.5498L59.0401 34.1498V53.4602Z" fill="#DBDBDB"/>
</g>
</svg>
