<svg width="72" height="72" viewBox="0 0 72 72" fill="none" xmlns="http://www.w3.org/2000/svg">
<g opacity="0.7">
<path d="M55.3536 35.9424C55.2714 35.7465 55.1334 35.5792 54.9566 35.4614C54.7799 35.3436 54.5724 35.2805 54.36 35.28H41.9256L49.1256 6.0336C49.1762 5.80503 49.1511 5.56622 49.0542 5.35312C48.9573 5.14003 48.7938 4.96419 48.5882 4.85209C48.3827 4.73999 48.1464 4.6977 47.9147 4.73159C47.6831 4.76549 47.4687 4.87372 47.304 5.04L16.8768 35.5968C16.7259 35.7478 16.6232 35.9402 16.5816 36.1496C16.54 36.3589 16.5614 36.5759 16.6431 36.7732C16.7247 36.9704 16.863 37.139 17.0404 37.2577C17.2179 37.3764 17.4265 37.4398 17.64 37.44H30.0744L22.8744 66.6864C22.8238 66.915 22.8488 67.1538 22.9457 67.3669C23.0426 67.58 23.2062 67.7558 23.4117 67.8679C23.6172 67.98 23.8536 68.0223 24.0852 67.9884C24.3168 67.9545 24.5312 67.8463 24.696 67.68L55.1232 37.1232C55.2743 36.9714 55.377 36.7781 55.418 36.5679C55.459 36.3576 55.4366 36.1399 55.3536 35.9424ZM25.92 63.4248L32.5152 36.6192C32.5547 36.4593 32.5571 36.2924 32.5223 36.1314C32.4874 35.9704 32.4162 35.8195 32.3141 35.6903C32.2119 35.5611 32.0816 35.4569 31.933 35.3858C31.7844 35.3147 31.6215 35.2785 31.4568 35.28H20.2392L46.08 9.2952L39.4992 36.1008C39.4599 36.2595 39.4572 36.4251 39.4913 36.585C39.5254 36.745 39.5953 36.8951 39.6958 37.024C39.7964 37.153 39.9249 37.2574 40.0716 37.3295C40.2184 37.4015 40.3797 37.4393 40.5432 37.44H51.7608L25.92 63.4248Z" fill="#DBDBDB"/>
<path d="M51.1632 49.637C50.9584 49.4463 50.6877 49.3424 50.4079 49.3473C50.1281 49.3523 49.8611 49.4656 49.6632 49.6635C49.4654 49.8614 49.352 50.1283 49.3471 50.4081C49.3422 50.6879 49.446 50.9587 49.6368 51.1634L58.2768 59.8034C58.4815 59.9942 58.7523 60.0981 59.0321 60.0931C59.3119 60.0882 59.5788 59.9748 59.7767 59.777C59.9746 59.5791 60.0879 59.3121 60.0929 59.0323C60.0978 58.7525 59.994 58.4818 59.8032 58.277L51.1632 49.637Z" fill="#DBDBDB"/>
<path d="M20.16 21.9601C20.3734 21.9599 20.5821 21.8964 20.7595 21.7778C20.9369 21.6591 21.0752 21.4905 21.1569 21.2932C21.2385 21.096 21.2599 20.879 21.2183 20.6696C21.1767 20.4603 21.074 20.2679 20.9232 20.1169L12.2832 11.4769C12.0784 11.2861 11.8077 11.1822 11.5279 11.1872C11.2481 11.1921 10.9811 11.3055 10.7832 11.5033C10.5854 11.7012 10.472 11.9682 10.4671 12.248C10.4622 12.5278 10.566 12.7985 10.7568 13.0033L19.3968 21.6433C19.5991 21.8459 19.8736 21.9598 20.16 21.9601Z" fill="#DBDBDB"/>
<path d="M49.2768 21.2834C49.4793 21.4857 49.7538 21.5993 50.04 21.5993C50.3262 21.5993 50.6007 21.4857 50.8032 21.2834L59.4432 12.6434C59.634 12.4387 59.7378 12.1679 59.7329 11.8881C59.7279 11.6083 59.6146 11.3413 59.4167 11.1435C59.2189 10.9456 58.9519 10.8323 58.6721 10.8273C58.3923 10.8224 58.1215 10.9262 57.9168 11.117L49.2768 19.757C49.0745 19.9595 48.9609 20.234 48.9609 20.5202C48.9609 20.8064 49.0745 21.0809 49.2768 21.2834Z" fill="#DBDBDB"/>
<path d="M19.7568 49.9969L11.1168 58.6369C11.0107 58.7358 10.9256 58.855 10.8666 58.9875C10.8075 59.12 10.7758 59.263 10.7732 59.408C10.7707 59.553 10.7974 59.697 10.8517 59.8315C10.906 59.966 10.9868 60.0882 11.0894 60.1907C11.192 60.2933 11.3141 60.3741 11.4486 60.4284C11.5831 60.4827 11.7271 60.5094 11.8721 60.5069C12.0171 60.5043 12.1601 60.4726 12.2926 60.4135C12.4251 60.3545 12.5443 60.2694 12.6432 60.1633L21.2832 51.5233C21.474 51.3186 21.5778 51.0478 21.5729 50.768C21.568 50.4882 21.4546 50.2212 21.2567 50.0234C21.0589 49.8255 20.7919 49.7121 20.5121 49.7072C20.2323 49.7023 19.9615 49.8061 19.7568 49.9969Z" fill="#DBDBDB"/>
<path d="M13.32 46.8002C14.3141 46.8002 15.12 45.9943 15.12 45.0002C15.12 44.0061 14.3141 43.2002 13.32 43.2002C12.3259 43.2002 11.52 44.0061 11.52 45.0002C11.52 45.9943 12.3259 46.8002 13.32 46.8002Z" fill="#DBDBDB"/>
<path d="M6.84004 41.7602C7.83415 41.7602 8.64004 40.9543 8.64004 39.9602C8.64004 38.966 7.83415 38.1602 6.84004 38.1602C5.84593 38.1602 5.04004 38.966 5.04004 39.9602C5.04004 40.9543 5.84593 41.7602 6.84004 41.7602Z" fill="#DBDBDB"/>
<path d="M64.44 32.3998C65.4341 32.3998 66.24 31.5939 66.24 30.5998C66.24 29.6057 65.4341 28.7998 64.44 28.7998C63.4459 28.7998 62.64 29.6057 62.64 30.5998C62.64 31.5939 63.4459 32.3998 64.44 32.3998Z" fill="#DBDBDB"/>
<path d="M22.68 14.3998C23.6741 14.3998 24.48 13.5939 24.48 12.5998C24.48 11.6057 23.6741 10.7998 22.68 10.7998C21.6859 10.7998 20.88 11.6057 20.88 12.5998C20.88 13.5939 21.6859 14.3998 22.68 14.3998Z" fill="#DBDBDB"/>
</g>
</svg>
