<svg width="72" height="72" viewBox="0 0 72 72" fill="none" xmlns="http://www.w3.org/2000/svg">
<g opacity="0.7">
<path d="M46.44 5.75977C42.524 5.75977 38.6958 6.92102 35.4397 9.09667C32.1836 11.2723 29.6458 14.3647 28.1472 17.9826C26.6486 21.6006 26.2565 25.5817 27.0205 29.4226C27.7845 33.2634 29.6702 36.7914 32.4393 39.5605C35.2084 42.3296 38.7364 44.2153 42.5772 44.9793C46.4181 45.7433 50.3992 45.3512 54.0172 43.8526C57.6351 42.354 60.7275 39.8162 62.9031 36.5601C65.0788 33.304 66.24 29.4758 66.24 25.5598C66.2343 20.3102 64.1464 15.2773 60.4344 11.5654C56.7224 7.85338 51.6896 5.76548 46.44 5.75977ZM46.44 43.1998C42.9512 43.1998 39.5406 42.1652 36.6398 40.2269C33.7389 38.2886 31.4779 35.5336 30.1428 32.3103C28.8077 29.087 28.4583 25.5402 29.139 22.1184C29.8196 18.6965 31.4997 15.5534 33.9667 13.0864C36.4337 10.6194 39.5768 8.93936 42.9986 8.25871C46.4205 7.57807 49.9673 7.9274 53.1906 9.26253C56.4138 10.5977 59.1688 12.8586 61.1071 15.7595C63.0455 18.6604 64.08 22.0709 64.08 25.5598C64.0743 30.2364 62.214 34.7199 58.9071 38.0268C55.6002 41.3337 51.1167 43.194 46.44 43.1998Z" fill="#DBDBDB"/>
<path d="M18.5471 33.0769C18.6823 33.1244 18.8255 33.1445 18.9685 33.1361C19.1115 33.1277 19.2514 33.0909 19.3801 33.0279C19.5087 32.965 19.6235 32.877 19.7179 32.7692C19.8122 32.6614 19.8842 32.5359 19.9295 32.4001C20.7007 30.2334 21.9624 28.2744 23.6159 26.6761C23.8124 26.4753 23.9228 26.2059 23.9239 25.9251C23.9251 25.6442 23.8167 25.374 23.6219 25.1717C23.4271 24.9694 23.1611 24.8509 22.8804 24.8414C22.5997 24.832 22.3264 24.9322 22.1183 25.1209C20.2225 26.952 18.7759 29.197 17.8919 31.6801C17.8417 31.8147 17.8189 31.958 17.8248 32.1016C17.8306 32.2451 17.8651 32.3861 17.9261 32.5161C17.9871 32.6462 18.0735 32.7628 18.1801 32.8591C18.2867 32.9554 18.4115 33.0294 18.5471 33.0769Z" fill="#DBDBDB"/>
<path d="M20.4696 46.9655C20.6628 46.9657 20.8525 46.914 21.019 46.8158C21.1854 46.7177 21.3225 46.5767 21.4159 46.4076C21.5093 46.2384 21.5556 46.0473 21.55 45.8542C21.5444 45.6611 21.4871 45.473 21.384 45.3095C19.9344 43.0285 19.1375 40.3939 19.08 37.6919C19.0743 37.4055 18.955 37.1331 18.7484 36.9346C18.5418 36.7361 18.2648 36.6278 17.9784 36.6335C17.692 36.6392 17.4196 36.7585 17.2211 36.9651C17.0226 37.1717 16.9143 37.4487 16.92 37.7351C16.9832 40.8292 17.8921 43.847 19.548 46.4615C19.646 46.617 19.7821 46.7449 19.9434 46.8331C20.1047 46.9213 20.2858 46.9669 20.4696 46.9655Z" fill="#DBDBDB"/>
<path d="M44.5824 47.6714C42.7086 49.6175 40.3383 51.0142 37.728 51.7106C37.4511 51.7841 37.2148 51.9646 37.071 52.2124C36.9272 52.4602 36.8877 52.7549 36.9612 53.0318C37.0347 53.3087 37.2152 53.545 37.463 53.6888C37.7108 53.8326 38.0055 53.8721 38.2824 53.7986C41.2733 53.0029 43.9897 51.4045 46.1376 49.1762C46.2409 49.0751 46.3229 48.9543 46.3787 48.821C46.4345 48.6877 46.4629 48.5445 46.4624 48.3999C46.4618 48.2554 46.4322 48.1125 46.3754 47.9796C46.3185 47.8467 46.2356 47.7265 46.1315 47.6263C46.0274 47.526 45.9042 47.4477 45.7693 47.3959C45.6343 47.3441 45.4903 47.32 45.3459 47.3248C45.2014 47.3297 45.0594 47.3635 44.9283 47.4243C44.7971 47.4851 44.6795 47.5716 44.5824 47.6786V47.6714Z" fill="#DBDBDB"/>
<path d="M32.4 52.1282C29.7161 51.8622 27.1563 50.8661 24.9984 49.2482C24.8849 49.1631 24.7558 49.1012 24.6184 49.066C24.481 49.0308 24.3381 49.023 24.1977 49.0431C24.0572 49.0631 23.9222 49.1107 23.8001 49.1829C23.6781 49.2552 23.5715 49.3508 23.4864 49.4642C23.4013 49.5777 23.3394 49.7068 23.3042 49.8442C23.269 49.9816 23.2612 50.1246 23.2812 50.265C23.3013 50.4054 23.3488 50.5404 23.4211 50.6625C23.4933 50.7845 23.5889 50.8911 23.7024 50.9762C26.1755 52.8376 29.1114 53.9856 32.1912 54.2954H32.2992C32.5856 54.3098 32.866 54.2097 33.0787 54.0173C33.2913 53.8249 33.4189 53.5559 33.4332 53.2694C33.4475 52.983 33.3475 52.7026 33.155 52.4899C32.9626 52.2773 32.6936 52.1498 32.4072 52.1354L32.4 52.1282Z" fill="#DBDBDB"/>
<path d="M10.404 53.0062C10.1873 52.1373 10.0785 51.245 10.08 50.3494C10.0806 49.9332 10.1046 49.5174 10.152 49.1038C10.1844 48.8174 10.1018 48.5298 9.92221 48.3043C9.83329 48.1927 9.72325 48.0996 9.59837 48.0305C9.47348 47.9614 9.33621 47.9175 9.19438 47.9014C9.05256 47.8854 8.90895 47.8974 8.77177 47.9368C8.63459 47.9762 8.50651 48.0423 8.39486 48.1312C8.16937 48.3108 8.02445 48.5726 7.99198 48.859C7.94002 49.3541 7.91598 49.8517 7.91998 50.3494C7.9184 51.4222 8.04898 52.491 8.30878 53.5318C8.36819 53.7653 8.50392 53.9721 8.69439 54.1195C8.88485 54.2669 9.11913 54.3465 9.35998 54.3454C9.52488 54.3461 9.68775 54.3091 9.8361 54.2371C9.98446 54.1651 10.1144 54.0601 10.2158 53.9301C10.3173 53.8001 10.3877 53.6486 10.4215 53.4872C10.4554 53.3258 10.4519 53.1589 10.4112 52.999L10.404 53.0062Z" fill="#DBDBDB"/>
<path d="M9.8352 45.8279C10.0878 45.9548 10.3801 45.9777 10.6493 45.8915C10.9185 45.8053 11.1432 45.6171 11.2752 45.3671C11.8828 44.2001 12.6976 43.1535 13.68 42.2783C13.8752 42.0829 13.9881 41.8202 13.9955 41.5441C14.0029 41.268 13.9043 40.9996 13.7199 40.794C13.5355 40.5884 13.2793 40.4612 13.0041 40.4387C12.7288 40.4161 12.4554 40.4999 12.24 40.6727C11.063 41.7237 10.0871 42.9802 9.36 44.3807C9.2319 44.6358 9.20998 44.9312 9.29902 45.2023C9.38806 45.4735 9.58083 45.6984 9.8352 45.8279Z" fill="#DBDBDB"/>
<path d="M29.0736 57.5279C28.206 58.5133 27.1668 59.3329 26.0064 59.9471C25.8746 60.0095 25.7568 60.0979 25.66 60.2071C25.5633 60.3162 25.4897 60.4438 25.4436 60.5822C25.3975 60.7206 25.38 60.8668 25.392 61.0122C25.404 61.1575 25.4453 61.2989 25.5134 61.4279C25.5815 61.5568 25.675 61.6706 25.7883 61.7625C25.9016 61.8543 26.0324 61.9222 26.1726 61.9621C26.3129 62.002 26.4598 62.0131 26.6045 61.9948C26.7491 61.9764 26.8886 61.9289 27.0144 61.8551C28.4045 61.1249 29.6509 60.1492 30.6936 58.9751C30.8846 58.7603 30.9824 58.4784 30.9655 58.1915C30.9486 57.9046 30.8184 57.6361 30.6036 57.4451C30.3888 57.2542 30.1069 57.1564 29.82 57.1733C29.533 57.1901 29.2646 57.3203 29.0736 57.5351V57.5279Z" fill="#DBDBDB"/>
<path d="M14.8031 59.3065C13.7182 58.5651 12.7766 57.6333 12.0239 56.5561C11.9426 56.4398 11.8392 56.3407 11.7196 56.2644C11.5999 56.188 11.4665 56.136 11.3267 56.1113C11.187 56.0865 11.0437 56.0896 10.9052 56.1202C10.7666 56.1508 10.6354 56.2084 10.5191 56.2897C10.4028 56.371 10.3037 56.4745 10.2274 56.5941C10.151 56.7137 10.099 56.8472 10.0743 56.987C10.0243 57.2692 10.0885 57.5596 10.2527 57.7945C11.1532 59.0857 12.2802 60.203 13.5791 61.0921C13.6957 61.1779 13.8283 61.2394 13.9691 61.273C14.1098 61.3065 14.2559 61.3114 14.3986 61.2874C14.5413 61.2634 14.6778 61.211 14.7998 61.1332C14.9219 61.0554 15.027 60.9539 15.1091 60.8347C15.1911 60.7155 15.2484 60.581 15.2774 60.4392C15.3065 60.2975 15.3068 60.1513 15.2782 60.0094C15.2497 59.8675 15.1929 59.7329 15.1113 59.6133C15.0297 59.4938 14.9249 59.3919 14.8031 59.3137V59.3065Z" fill="#DBDBDB"/>
<path d="M22.2768 61.121C20.9731 61.28 19.6515 61.2044 18.3744 60.8978C18.0956 60.83 17.8013 60.8758 17.5562 61.025C17.3112 61.1742 17.1354 61.4146 17.0676 61.6934C16.9998 61.9722 17.0456 62.2665 17.1948 62.5116C17.344 62.7567 17.5844 62.9324 17.8632 63.0002C19.3923 63.3679 20.975 63.4582 22.536 63.2666C22.8225 63.2313 23.0831 63.0836 23.2607 62.8561C23.4382 62.6286 23.5181 62.3399 23.4828 62.0534C23.4475 61.767 23.2998 61.5063 23.0723 61.3288C22.8448 61.1512 22.5561 61.0713 22.2696 61.1066L22.2768 61.121Z" fill="#DBDBDB"/>
</g>
</svg>
