<svg width="72" height="72" viewBox="0 0 72 72" fill="none" xmlns="http://www.w3.org/2000/svg">
<path d="M36 37.4399C32.2775 37.4438 28.7086 38.9242 26.0764 41.5564C23.4442 44.1886 21.9638 47.7575 21.96 51.4799C21.96 51.7664 22.0737 52.0411 22.2763 52.2436C22.4788 52.4462 22.7535 52.5599 23.04 52.5599H48.96C49.2464 52.5599 49.5211 52.4462 49.7236 52.2436C49.9262 52.0411 50.04 51.7664 50.04 51.4799C50.0361 47.7575 48.5557 44.1886 45.9235 41.5564C43.2913 38.9242 39.7224 37.4438 36 37.4399ZM24.1704 50.3999C24.4336 47.4432 25.7942 44.6922 27.9842 42.6884C30.1743 40.6847 33.0352 39.5734 36.0036 39.5734C38.972 39.5734 41.8328 40.6847 44.0229 42.6884C46.213 44.6922 47.5735 47.4432 47.8368 50.3999H24.1704Z" fill="#DBDBDB"/>
<path d="M35.28 34.2001C36.9176 34.2001 38.5185 33.7145 39.8801 32.8047C41.2418 31.8949 42.303 30.6017 42.9297 29.0888C43.5564 27.5758 43.7204 25.911 43.4009 24.3048C43.0814 22.6986 42.2928 21.2233 41.1348 20.0653C39.9769 18.9073 38.5015 18.1187 36.8953 17.7992C35.2892 17.4798 33.6244 17.6437 32.1114 18.2704C30.5984 18.8971 29.3052 19.9584 28.3954 21.32C27.4856 22.6817 27 24.2825 27 25.9201C27.0019 28.1155 27.8749 30.2205 29.4273 31.7729C30.9796 33.3253 33.0846 34.1982 35.28 34.2001ZM35.28 19.8001C36.4904 19.8001 37.6737 20.1591 38.6801 20.8315C39.6865 21.504 40.4709 22.4598 40.9341 23.5781C41.3974 24.6964 41.5185 25.9269 41.2824 27.1141C41.0463 28.3013 40.4634 29.3917 39.6075 30.2476C38.7516 31.1035 37.6611 31.6864 36.474 31.9225C35.2868 32.1587 34.0563 32.0375 32.938 31.5743C31.8197 31.1111 30.8639 30.3267 30.1914 29.3202C29.5189 28.3138 29.16 27.1306 29.16 25.9201C29.1619 24.2976 29.8073 22.7421 30.9546 21.5948C32.1019 20.4474 33.6575 19.802 35.28 19.8001Z" fill="#DBDBDB"/>
<path d="M69.8401 34.5602H66.2041C65.8421 26.9212 62.5992 19.7031 57.1285 14.3592C51.6577 9.01541 44.3655 5.94283 36.7201 5.76021V1.80021C36.7201 1.51378 36.6063 1.23908 36.4038 1.03654C36.2012 0.834 35.9265 0.720215 35.6401 0.720215C35.3536 0.720215 35.0789 0.834 34.8764 1.03654C34.6739 1.23908 34.5601 1.51378 34.5601 1.80021V5.79621C27.0498 6.16279 19.9446 9.31095 14.6277 14.6278C9.31081 19.9448 6.16265 27.0499 5.79608 34.5602H2.16008C1.87364 34.5602 1.59894 34.674 1.3964 34.8765C1.19386 35.0791 1.08008 35.3538 1.08008 35.6402C1.08008 35.9266 1.19386 36.2014 1.3964 36.4039C1.59894 36.6064 1.87364 36.7202 2.16008 36.7202H5.76008C5.9427 44.3656 9.01527 51.6579 14.3591 57.1286C19.7029 62.5994 26.9211 65.8422 34.5601 66.2042V70.2002C34.5601 70.4866 34.6739 70.7613 34.8764 70.9639C35.0789 71.1664 35.3536 71.2802 35.6401 71.2802C35.9265 71.2802 36.2012 71.1664 36.4038 70.9639C36.6063 70.7613 36.7201 70.4866 36.7201 70.2002V66.2402C44.4917 66.0573 51.8944 62.8884 57.3914 57.3915C62.8883 51.8946 66.0571 44.4919 66.2401 36.7202H69.8401C70.1265 36.7202 70.4012 36.6064 70.6038 36.4039C70.8063 36.2014 70.9201 35.9266 70.9201 35.6402C70.9201 35.3538 70.8063 35.0791 70.6038 34.8765C70.4012 34.674 70.1265 34.5602 69.8401 34.5602ZM36.7201 64.0802V60.8402C36.7201 60.5538 36.6063 60.2791 36.4038 60.0765C36.2012 59.874 35.9265 59.7602 35.6401 59.7602C35.3536 59.7602 35.0789 59.874 34.8764 60.0765C34.6739 60.2791 34.5601 60.5538 34.5601 60.8402V64.0442C27.494 63.6837 20.8244 60.669 15.8852 55.603C10.9461 50.537 8.10138 43.7932 7.92008 36.7202H11.5201C11.8065 36.7202 12.0812 36.6064 12.2838 36.4039C12.4863 36.2014 12.6001 35.9266 12.6001 35.6402C12.6001 35.3538 12.4863 35.0791 12.2838 34.8765C12.0812 34.674 11.8065 34.5602 11.5201 34.5602H7.95608C8.32172 27.623 11.242 21.0665 16.1542 16.1543C21.0664 11.2421 27.6228 8.32185 34.5601 7.95621V11.1602C34.5601 11.4466 34.6739 11.7213 34.8764 11.9239C35.0789 12.1264 35.3536 12.2402 35.6401 12.2402C35.9265 12.2402 36.2012 12.1264 36.4038 11.9239C36.6063 11.7213 36.7201 11.4466 36.7201 11.1602V7.92021C43.793 8.10151 50.5369 10.9462 55.6029 15.8854C60.6689 20.8246 63.6836 27.4941 64.0441 34.5602H60.4801C60.1936 34.5602 59.9189 34.674 59.7164 34.8765C59.5139 35.0791 59.4001 35.3538 59.4001 35.6402C59.4001 35.9266 59.5139 36.2014 59.7164 36.4039C59.9189 36.6064 60.1936 36.7202 60.4801 36.7202H64.0801C63.8977 43.9191 60.9566 50.7728 55.8646 55.8648C50.7726 60.9568 43.9189 63.8979 36.7201 64.0802Z" fill="#DBDBDB"/>
</svg>
